<svg width="32" height="33" viewBox="0 0 32 33" fill="none" xmlns="http://www.w3.org/2000/svg">
<g clip-path="url(#clip0_4_225)">
<path d="M18.5295 21.478C17.747 20.9321 16.9108 20.4873 16.0363 20.1475C17.1996 19.0901 17.9714 17.6089 18.1056 15.9507C19.8698 14.2317 22.1823 13.2893 24.6613 13.2893C26.5966 13.2893 28.4548 13.8721 30.0353 14.9744C30.6017 15.3694 31.3805 15.2307 31.7756 14.6643C32.1703 14.0981 32.0317 13.3191 31.4655 12.9243C30.683 12.3784 29.8466 11.9338 28.9721 11.5938C30.2558 10.427 31.0629 8.74463 31.0629 6.87744C31.0629 3.36255 28.2035 0.503174 24.6886 0.503174C21.174 0.503174 18.3146 3.36255 18.3146 6.87744C18.3146 8.73706 19.1152 10.4133 20.3901 11.5796C20.2155 11.6467 20.0419 11.7178 19.87 11.7935C19.0878 12.1377 18.3525 12.561 17.6686 13.0581C16.7255 10.7151 14.4294 9.05689 11.7528 9.05689C8.2382 9.05689 5.37858 11.9163 5.37858 15.4309C5.37858 17.2854 6.17472 18.957 7.44279 20.1228C4.05241 21.3931 1.30338 24.1213 0.18424 27.6008C-0.186854 28.7546 0.00967932 29.9783 0.723547 30.958C1.43741 31.9375 2.54191 32.4993 3.75382 32.4993H14.6276C15.3178 32.4993 15.8774 31.9397 15.8774 31.2493C15.8774 30.5591 15.3178 29.9995 14.6276 29.9995H3.75382C3.34977 29.9995 2.9816 29.8123 2.74357 29.4856C2.50553 29.1589 2.4401 28.751 2.56364 28.3662C3.79899 24.5254 7.56657 21.843 11.7255 21.843C13.6606 21.843 15.519 22.4258 17.0995 23.5281C17.6657 23.9231 18.4447 23.7842 18.8398 23.218C19.2345 22.6519 19.0959 21.8728 18.5295 21.478ZM24.6886 3.00293C26.8251 3.00293 28.5632 4.74097 28.5632 6.87744C28.5632 9.01367 26.8251 10.752 24.6886 10.752C22.5524 10.752 20.8141 9.01367 20.8141 6.87744C20.8141 4.74097 22.5524 3.00293 24.6886 3.00293ZM11.7528 11.5564C13.8893 11.5564 15.6274 13.2947 15.6274 15.4309C15.6274 17.5674 13.8893 19.3054 11.7528 19.3054C9.61637 19.3054 7.87834 17.5674 7.87834 15.4309C7.87834 13.2947 9.61637 11.5564 11.7528 11.5564ZM32.0004 26.5625C32.0004 27.2527 31.4408 27.8123 30.7504 27.8123H27.3134V31.2493C27.3134 31.9397 26.7538 32.4993 26.0636 32.4993C25.3732 32.4993 24.8136 31.9397 24.8136 31.2493V27.8123H21.3766C20.6864 27.8123 20.1269 27.2527 20.1269 26.5625C20.1269 25.8721 20.6864 25.3125 21.3766 25.3125H24.8136V21.8755C24.8136 21.1853 25.3732 20.6257 26.0636 20.6257C26.7538 20.6257 27.3134 21.1853 27.3134 21.8755V25.3125H30.7504C31.4408 25.3125 32.0004 25.8721 32.0004 26.5625Z" fill="#4B1971"/>
</g>
<defs>
<clipPath id="clip0_4_225">
<rect width="32" height="32" fill="white" transform="translate(0 0.440796)"/>
</clipPath>
</defs>
</svg>
