<svg width="66" height="66" viewBox="0 0 66 66" fill="none" xmlns="http://www.w3.org/2000/svg">
<g clip-path="url(#clip0_39_1520)">
<path fill-rule="evenodd" clip-rule="evenodd" d="M32.716 0.412109C14.7598 0.412109 0.216003 14.9559 0.216003 32.9121C0.216003 47.2934 9.51913 59.4402 22.4379 63.7465C24.0629 64.0309 24.6723 63.0559 24.6723 62.2027C24.6723 61.4309 24.6316 58.8715 24.6316 56.1496C16.466 57.6527 14.3535 54.159 13.7035 52.3309C13.3379 51.3965 11.7535 48.5121 10.3723 47.7402C9.23475 47.1309 7.60975 45.6277 10.3316 45.5871C12.891 45.5465 14.7191 47.9434 15.3285 48.9184C18.2535 53.834 22.9254 52.4527 24.7941 51.5996C25.0785 49.4871 25.9316 48.0652 26.866 47.2527C19.6348 46.4402 12.0785 43.6371 12.0785 31.2059C12.0785 27.6715 13.3379 24.7465 15.4098 22.4715C15.0848 21.659 13.9473 18.3277 15.7348 13.859C15.7348 13.859 18.4566 13.0059 24.6723 17.1902C27.2723 16.459 30.0348 16.0934 32.7973 16.0934C35.5598 16.0934 38.3223 16.459 40.9223 17.1902C47.1379 12.9652 49.8598 13.859 49.8598 13.859C51.6473 18.3277 50.5098 21.659 50.1848 22.4715C52.2566 24.7465 53.516 27.6309 53.516 31.2059C53.516 43.6777 45.9191 46.4402 38.6879 47.2527C39.866 48.2684 40.8816 50.2184 40.8816 53.2652C40.8816 57.6121 40.841 61.1059 40.841 62.2027C40.841 63.0559 41.4504 64.0715 43.0754 63.7465C55.9129 59.4402 65.216 47.2527 65.216 32.9121C65.216 14.9559 50.6723 0.412109 32.716 0.412109Z" fill="#4B1971"/>
</g>
<defs>
<clipPath id="clip0_39_1520">
<rect width="65" height="65" fill="white" transform="translate(0.216003 0.412109)"/>
</clipPath>
</defs>
</svg>
