<svg width="64" height="61" viewBox="0 0 64 61" fill="none" xmlns="http://www.w3.org/2000/svg">
<g clip-path="url(#clip0_210_399)">
<path d="M62.1123 24.9003L62.0283 24.6778L53.5466 2.70424C53.375 2.27278 53.0693 1.90678 52.6744 1.65921C52.3796 1.4718 52.0447 1.35559 51.6966 1.31988C51.3486 1.28417 50.9969 1.32995 50.6696 1.45357C50.3428 1.57718 50.0491 1.77518 49.8131 2.0317C49.577 2.28822 49.4046 2.59613 49.3097 2.93073L43.5846 20.3387H20.4L14.6748 2.93073C14.5793 2.59663 14.4066 2.2893 14.1703 2.03327C13.934 1.77724 13.6407 1.57959 13.3139 1.45608C12.987 1.33257 12.6357 1.28661 12.2878 1.32188C11.9399 1.35715 11.6051 1.47266 11.3101 1.65921C10.9151 1.90678 10.6096 2.27278 10.438 2.70424L1.9603 24.6817L1.87229 24.9003C0.651747 28.0684 0.501381 31.5447 1.44386 34.8051C2.38633 38.0655 4.37055 40.9333 7.09735 42.9757L7.12936 42.9995L7.20133 43.0552L20.1039 52.6591L26.5052 57.4631L30.3939 60.3836C30.8502 60.7262 31.4065 60.9113 31.9783 60.9113C32.5501 60.9113 33.1063 60.7262 33.5626 60.3836L37.4514 57.4631L43.8527 52.6591L56.8472 42.9995L56.8833 42.9717C59.6098 40.9301 61.5942 38.0632 62.5376 34.8036C63.4806 31.544 63.3313 28.0683 62.1123 24.9003Z" fill="#5E218C"/>
<path d="M62.1123 24.9002L62.0283 24.6777C57.8958 25.5199 54.0019 27.2595 50.626 29.7718L32.0023 43.7585L43.8606 52.6591L56.8552 42.9995L56.8912 42.9717C59.6166 40.929 61.5994 38.0617 62.5412 34.8022C63.4826 31.5426 63.3321 28.0674 62.1123 24.9002Z" fill="#4B1971"/>
<path d="M20.1039 52.6591L26.5052 57.4631L30.394 60.3836C30.8503 60.7261 31.4065 60.9113 31.9783 60.9113C32.5501 60.9113 33.1063 60.7261 33.5626 60.3836L37.4514 57.4631L43.8527 52.6591L31.9943 43.7584L20.1039 52.6591Z" fill="#391A51"/>
<path d="M13.3586 29.7718C9.98372 27.2608 6.09127 25.5226 1.9603 24.6818L1.87229 24.9003C0.651747 28.0684 0.501381 31.5448 1.44386 34.8052C2.38633 38.0655 4.37055 40.9333 7.09735 42.9757L7.12936 42.9995L7.20133 43.0552L20.1039 52.6591L31.9703 43.7585L13.3586 29.7718Z" fill="#4B1971"/>
</g>
<defs>
<clipPath id="clip0_210_399">
<rect width="62.8125" height="60" fill="white" transform="translate(0.500031 0.912109)"/>
</clipPath>
</defs>
</svg>
