<svg width="64" height="65" viewBox="0 0 64 65" fill="none" xmlns="http://www.w3.org/2000/svg">
<rect y="0.440674" width="64" height="64" rx="32" fill="#F3F6FF"/>
<g clip-path="url(#clip0_0_490)">
<path d="M23.5 29.1282H21.0301C21.4473 23.4407 26.2079 18.9407 32 18.9407C36.5834 18.9407 40.7307 21.8275 42.3203 26.1244C42.5598 26.7718 43.2788 27.1025 43.9264 26.863C44.5738 26.6235 44.9046 25.9045 44.6651 25.257C43.7177 22.696 42.0346 20.5045 39.7979 18.9194C37.5098 17.2978 34.8133 16.4407 32 16.4407C28.3941 16.4407 25.0039 17.8449 22.4541 20.3947C19.9375 22.9113 18.5378 26.2465 18.5017 29.7999C17.0078 30.6655 16 32.2809 16 34.1282V38.3782C16 41.1352 18.243 43.3782 21 43.3782H23.5C24.1904 43.3782 24.75 42.8185 24.75 42.1282V30.3782C24.75 29.6878 24.1904 29.1282 23.5 29.1282ZM22.25 40.8782H21C19.6215 40.8782 18.5 39.7567 18.5 38.3782V34.1282C18.5 32.7497 19.6215 31.6282 21 31.6282H22.25V40.8782Z" fill="#4B1971"/>
<path d="M43 29.1282H40.5C39.8096 29.1282 39.25 29.6878 39.25 30.3782V38.9407V42.1282V43.4407C39.25 44.1299 38.6892 44.6907 38 44.6907H34.1875V44.7303C33.7611 43.9614 32.9415 43.4407 32 43.4407C30.6193 43.4407 29.5 44.56 29.5 45.9407C29.5 47.3214 30.6193 48.4407 32 48.4407C32.9415 48.4407 33.7611 47.92 34.1875 47.151V47.1907H38C40.0677 47.1907 41.75 45.5084 41.75 43.4407V43.3782H43C45.757 43.3782 48 41.1352 48 38.3782V34.1282C48 31.3712 45.757 29.1282 43 29.1282ZM45.5 38.3782C45.5 39.7567 44.3785 40.8782 43 40.8782H41.75V38.9407V31.6282H43C44.3785 31.6282 45.5 32.7497 45.5 34.1282V38.3782Z" fill="#4B1971"/>
</g>
<defs>
<clipPath id="clip0_0_490">
<rect width="32" height="32" fill="white" transform="translate(16 16.4407)"/>
</clipPath>
</defs>
</svg>
