<svg width="56" height="57" viewBox="0 0 56 57" fill="none" xmlns="http://www.w3.org/2000/svg">
<path d="M28 42.3164C37.3333 42.3164 39.6667 32.9831 39.6667 32.9831H16.3333C16.3333 32.9831 18.6667 42.3164 28 42.3164Z" fill="#4B1971"/>
<path d="M28 4.98306C15.134 4.98306 4.66666 15.4504 4.66666 28.3164C4.66666 41.1824 15.134 51.6497 28 51.6497C40.866 51.6497 51.3333 41.1824 51.3333 28.3164C51.3333 15.4504 40.866 4.98306 28 4.98306ZM28 46.9831C17.7077 46.9831 9.33332 38.6087 9.33332 28.3164C9.33332 18.0241 17.7077 9.64973 28 9.64973C38.2923 9.64973 46.6667 18.0241 46.6667 28.3164C46.6667 38.6087 38.2923 46.9831 28 46.9831Z" fill="#4B1971"/>
<path d="M30.3333 28.3164L35 28.3444C35.028 27.2664 35.4527 25.9831 37.3333 25.9831C39.214 25.9831 39.6387 27.2664 39.6667 28.3164H44.3333C44.3333 25.5024 42.469 21.3164 37.3333 21.3164C32.1977 21.3164 30.3333 25.5024 30.3333 28.3164ZM18.6667 25.9831C20.5473 25.9831 20.972 27.2664 21 28.3164H25.6667C25.6667 25.5024 23.8023 21.3164 18.6667 21.3164C13.531 21.3164 11.6667 25.5024 11.6667 28.3164L16.3333 28.3444C16.3613 27.2664 16.786 25.9831 18.6667 25.9831Z" fill="#4B1971"/>
</svg>
