<svg width="56" height="57" viewBox="0 0 56 57" fill="none" xmlns="http://www.w3.org/2000/svg">
<path d="M28 4.98306C15.134 4.98306 4.66666 15.4504 4.66666 28.3164C4.66666 41.1824 15.134 51.6497 28 51.6497C40.866 51.6497 51.3333 41.1824 51.3333 28.3164C51.3333 15.4504 40.866 4.98306 28 4.98306ZM28 46.9831C17.7077 46.9831 9.33332 38.6087 9.33332 28.3164C9.33332 18.0241 17.7077 9.64973 28 9.64973C38.2923 9.64973 46.6667 18.0241 46.6667 28.3164C46.6667 38.6087 38.2923 46.9831 28 46.9831Z" fill="#4B1971"/>
<path d="M34.5987 34.9151C34.1693 35.3444 33.705 35.7271 33.2197 36.0561C32.718 36.3944 32.1837 36.6838 31.6353 36.9148C31.0637 37.1551 30.4757 37.3394 29.8853 37.4584C28.6463 37.7081 27.349 37.7081 26.1147 37.4584C25.522 37.3371 24.934 37.1528 24.367 36.9171C23.8163 36.6814 23.2797 36.3921 22.7827 36.0584C22.2927 35.7248 21.8283 35.3421 21.3967 34.9104C20.972 34.4904 20.5893 34.0261 20.258 33.5338L16.3893 36.1401C16.891 36.8844 17.4673 37.5844 18.0997 38.2144C18.7343 38.8514 19.432 39.4278 20.1717 39.9248C20.9183 40.4311 21.7187 40.8627 22.554 41.2174C23.408 41.5744 24.29 41.8498 25.1837 42.0318C26.1077 42.2208 27.0573 42.3164 28 42.3164C28.9427 42.3164 29.8923 42.2208 30.8187 42.0318C31.71 41.8521 32.592 41.5768 33.4507 41.2151C34.279 40.8651 35.0793 40.4311 35.833 39.9224C36.5657 39.4254 37.2633 38.8514 37.898 38.2191C38.5327 37.5868 39.1113 36.8868 39.6107 36.1401L35.742 33.5338C35.4083 34.0261 35.0257 34.4904 34.5987 34.9151Z" fill="#4B1971"/>
<path d="M19.8333 28.3164C21.7663 28.3164 23.3333 26.7494 23.3333 24.8164C23.3333 22.8834 21.7663 21.3164 19.8333 21.3164C17.9003 21.3164 16.3333 22.8834 16.3333 24.8164C16.3333 26.7494 17.9003 28.3164 19.8333 28.3164Z" fill="#4B1971"/>
<path d="M36.1667 23.6497C31.5 23.6497 30.3333 28.3164 30.3333 28.3164H42C42 28.3164 40.831 23.6497 36.1667 23.6497Z" fill="#4B1971"/>
</svg>
