<svg width="56" height="57" viewBox="0 0 56 57" fill="none" xmlns="http://www.w3.org/2000/svg">
<path d="M28 4.98306C15.134 4.98306 4.66667 15.4504 4.66667 28.3164C4.66667 41.1824 15.134 51.6497 28 51.6497C40.866 51.6497 51.3333 41.1824 51.3333 28.3164C51.3333 15.4504 40.866 4.98306 28 4.98306ZM28 46.9831C17.7077 46.9831 9.33333 38.6087 9.33333 28.3164C9.33333 18.0241 17.7077 9.64973 28 9.64973C38.2923 9.64973 46.6667 18.0241 46.6667 28.3164C46.6667 38.6087 38.2923 46.9831 28 46.9831Z" fill="#4B1971"/>
<path d="M19.8333 28.3164C21.7663 28.3164 23.3333 26.7494 23.3333 24.8164C23.3333 22.8834 21.7663 21.3164 19.8333 21.3164C17.9003 21.3164 16.3333 22.8834 16.3333 24.8164C16.3333 26.7494 17.9003 28.3164 19.8333 28.3164Z" fill="#4B1971"/>
<path d="M36.1503 28.2837C38.0743 28.2837 39.634 26.724 39.634 24.8001C39.634 22.8761 38.0743 21.3164 36.1503 21.3164C34.2264 21.3164 32.6667 22.8761 32.6667 24.8001C32.6667 26.724 34.2264 28.2837 36.1503 28.2837Z" fill="#4B1971"/>
<path d="M28 42.3164C37.3333 42.3164 39.6667 32.9831 39.6667 32.9831H16.3333C16.3333 32.9831 18.6667 42.3164 28 42.3164Z" fill="#4B1971"/>
</svg>
