<svg width="19" height="18" viewBox="0 0 19 18" fill="none" xmlns="http://www.w3.org/2000/svg">
<path d="M15.5 4.5H13.25V3C13.25 2.17275 12.5773 1.5 11.75 1.5H7.25C6.42275 1.5 5.75 2.17275 5.75 3V4.5H3.5C2.67275 4.5 2 5.17275 2 6V14.25C2 15.0773 2.67275 15.75 3.5 15.75H15.5C16.3273 15.75 17 15.0773 17 14.25V6C17 5.17275 16.3273 4.5 15.5 4.5ZM11.75 3V4.5H7.25V3H11.75ZM3.5 6H6.5H12.5H13.25H15.5V9H13.25V7.5H11.75V9H7.25V7.5H5.75V9H3.5V6ZM3.5 14.25V10.5H5.75V12H7.25V10.5H11.75V12H13.25V10.5H15.5007V14.25H3.5Z" fill="#9397AD"/>
</svg>
