<svg width="64" height="65" viewBox="0 0 64 65" fill="none" xmlns="http://www.w3.org/2000/svg">
<rect y="0.440674" width="64" height="64" rx="32" fill="#F3F6FF"/>
<g clip-path="url(#clip0_0_472)">
<path d="M19.9621 27.0365C20.3928 24.636 21.4894 22.4597 23.1336 20.743C23.6112 20.2444 23.5942 19.4532 23.0956 18.9757C22.5969 18.498 21.8057 18.5152 21.3283 19.0137C19.3424 21.087 18.0191 23.7086 17.5014 26.5952C17.3796 27.2747 17.8316 27.9243 18.5111 28.0462C18.5858 28.0595 18.6599 28.066 18.7333 28.066C19.3269 28.066 19.8537 27.6413 19.9621 27.0365Z" fill="#4B1971"/>
<path d="M44.4706 37.4277C44.4013 37.4006 43.4263 37.0077 42.7097 36.1063C42.2801 35.5659 41.4938 35.4762 40.9533 35.9058C40.4129 36.3355 40.3231 37.1218 40.7528 37.6622C41.399 38.4749 42.1504 39.0155 42.7242 39.3476C42.6283 39.8859 42.4257 40.4876 42.0713 40.9982C41.5148 41.8006 40.7286 42.1906 39.6681 42.1906H24.4194C22.4862 42.1906 21.6236 40.5707 21.3741 39.3409C21.7431 39.1274 22.1859 38.8289 22.6298 38.4296C24.0454 37.1559 24.7938 35.474 24.7938 33.5656V29.1906C24.7938 25.2461 27.9912 21.994 31.9214 21.9412C31.9323 21.9411 31.9429 21.9396 31.9537 21.9392C31.9629 21.9394 31.9719 21.9406 31.9813 21.9406C32.0142 21.9406 32.0466 21.9381 32.0789 21.9356C32.1078 21.938 32.1366 21.9408 32.1661 21.9412C36.1308 21.9944 39.3563 25.2465 39.3563 29.1906V30.9406C39.3563 31.6309 39.9159 32.1906 40.6063 32.1906C41.2966 32.1906 41.8563 31.6309 41.8563 30.9406V29.1906C41.8563 24.2335 38.0726 20.0899 33.2313 19.5103V17.6906C33.2313 17.0002 32.6716 16.4406 31.9813 16.4406C31.2909 16.4406 30.7313 17.0002 30.7313 17.6906V19.5259C28.6028 19.8084 26.6352 20.7879 25.0996 22.3489C23.2903 24.1883 22.2938 26.6181 22.2938 29.1906V33.5656C22.2938 36.3569 19.7788 37.3658 19.6168 37.4278C19.1144 37.6025 18.7938 38.0705 18.7938 38.6027C18.7938 39.9146 19.2611 41.349 20.0439 42.4397C21.0858 43.8912 22.6398 44.6906 24.4194 44.6906H28.2938C28.2938 46.7583 29.976 48.4406 32.0438 48.4406C34.1115 48.4406 35.7938 46.7583 35.7938 44.6906H39.6681C42.0519 44.6906 43.4078 43.4576 44.1253 42.4234C45.1799 40.9036 45.2937 39.2451 45.2937 38.6027C45.2938 38.0702 44.9731 37.6023 44.4706 37.4277ZM32.0438 45.9406C31.3545 45.9406 30.7938 45.3798 30.7938 44.6906H33.2938C33.2938 45.3798 32.7331 45.9406 32.0438 45.9406Z" fill="#4B1971"/>
<path d="M46.4987 26.6328C45.9761 23.7195 44.6023 20.99 42.6302 18.947C42.1507 18.4503 41.3595 18.4364 40.8627 18.9158C40.366 19.3953 40.3521 20.1866 40.8315 20.6833C42.4632 22.3736 43.602 24.6433 44.038 27.0742C44.1465 27.6791 44.6732 28.1037 45.2669 28.1037C45.3402 28.1037 45.4145 28.0973 45.4891 28.0839C46.1686 27.962 46.6207 27.3123 46.4987 26.6328Z" fill="#4B1971"/>
</g>
<defs>
<clipPath id="clip0_0_472">
<rect width="32" height="32" fill="white" transform="translate(16 16.4406)"/>
</clipPath>
</defs>
</svg>
