<svg width="20" height="21" viewBox="0 0 20 21" fill="none" xmlns="http://www.w3.org/2000/svg">
<path d="M16.6667 4.02283H3.33335C2.41419 4.02283 1.66669 4.77033 1.66669 5.68949V15.6895C1.66669 16.6087 2.41419 17.3562 3.33335 17.3562H16.6667C17.5859 17.3562 18.3334 16.6087 18.3334 15.6895V5.68949C18.3334 4.77033 17.5859 4.02283 16.6667 4.02283ZM16.6667 5.68949V6.11533L10 11.3012L3.33335 6.11616V5.68949H16.6667ZM3.33335 15.6895V8.22616L9.48835 13.0137C9.63835 13.1312 9.81919 13.1895 10 13.1895C10.1809 13.1895 10.3617 13.1312 10.5117 13.0137L16.6667 8.22616L16.6684 15.6895H3.33335Z" fill="#B4B7C9"/>
</svg>
