<svg width="21" height="21" viewBox="0 0 21 21" fill="none" xmlns="http://www.w3.org/2000/svg">
<path d="M10.5 1.7522C5.90502 1.7522 2.16669 5.49053 2.16669 10.0855C2.16669 14.6805 5.90502 18.4189 10.5 18.4189C15.095 18.4189 18.8334 14.6805 18.8334 10.0855C18.8334 5.49053 15.095 1.7522 10.5 1.7522ZM10.5 16.7522C6.82419 16.7522 3.83335 13.7614 3.83335 10.0855C3.83335 6.4097 6.82419 3.41886 10.5 3.41886C14.1759 3.41886 17.1667 6.4097 17.1667 10.0855C17.1667 13.7614 14.1759 16.7522 10.5 16.7522Z" fill="#4B1971"/>
<path d="M8.83252 11.408L6.91669 9.4955L5.74002 10.6755L8.83419 13.763L14.4225 8.17467L13.2442 6.99634L8.83252 11.408Z" fill="#4B1971"/>
</svg>
