<svg width="19" height="18" viewBox="0 0 19 18" fill="none" xmlns="http://www.w3.org/2000/svg">
<path d="M16.19 1.788C16.1427 1.776 15.023 1.5 13.622 1.5C11.6833 1.5 10.1248 2.03475 9.11375 3.04575C7.99775 4.16175 7.14275 5.034 6.7325 5.45475C5.822 5.352 3.67475 5.3025 2.21975 6.75825C2.07875 6.8985 2 7.089 2 7.2885C2 7.488 2.07875 7.6785 2.21975 7.81875L10.7045 16.3035C10.8455 16.4445 11.0352 16.5233 11.2347 16.5233C11.4342 16.5233 11.6248 16.4445 11.765 16.3035C13.2305 14.8388 13.1855 12.693 13.0903 11.796L15.4783 9.40875C17.8715 7.0155 16.7833 2.52225 16.736 2.3325C16.6693 2.06475 16.4585 1.85475 16.19 1.788ZM14.4177 8.349L11.7657 11.0002C11.5887 11.1772 11.5115 11.4315 11.561 11.6775C11.5647 11.6962 11.8663 13.359 11.159 14.6355L3.88775 7.365C5.16275 6.6615 6.8435 6.987 6.84875 6.987C7.09625 7.0395 7.36175 6.96 7.541 6.77475C7.54325 6.7725 8.5955 5.685 10.175 4.1055C11.0885 3.192 12.5533 3 13.622 3C14.3323 3 14.9667 3.08325 15.371 3.15225C15.554 4.2255 15.8397 6.92625 14.4177 8.349Z" fill="#9397AD"/>
<path d="M12.296 7.728C13.1244 7.728 13.796 7.05642 13.796 6.228C13.796 5.39957 13.1244 4.728 12.296 4.728C11.4676 4.728 10.796 5.39957 10.796 6.228C10.796 7.05642 11.4676 7.728 12.296 7.728Z" fill="#9397AD"/>
<path d="M4.25 12C2.75 12.75 2.75 15.75 2.75 15.75C2.75 15.75 5 15.75 6.5 14.25L4.25 12Z" fill="#9397AD"/>
</svg>
