<svg width="64" height="65" viewBox="0 0 64 65" fill="none" xmlns="http://www.w3.org/2000/svg">
<rect y="0.440674" width="64" height="64" rx="32" fill="#F3F6FF"/>
<path d="M46.75 38.4407C47.4404 38.4407 48 37.881 48 37.1907V23.9407C48 21.1837 45.757 18.9407 43 18.9407H41.375V17.6907C41.375 17.0003 40.8154 16.4407 40.125 16.4407C39.4346 16.4407 38.875 17.0003 38.875 17.6907V18.9407H33.1875V17.6907C33.1875 17.0003 32.6279 16.4407 31.9375 16.4407C31.2471 16.4407 30.6875 17.0003 30.6875 17.6907V18.9407H25.0625V17.6907C25.0625 17.0003 24.5029 16.4407 23.8125 16.4407C23.1221 16.4407 22.5625 17.0003 22.5625 17.6907V18.9407H21C18.243 18.9407 16 21.1837 16 23.9407V43.4407C16 46.1977 18.243 48.4407 21 48.4407H43C45.757 48.4407 48 46.1977 48 43.4407C48 42.7503 47.4404 42.1907 46.75 42.1907C46.0596 42.1907 45.5 42.7503 45.5 43.4407C45.5 44.8192 44.3785 45.9407 43 45.9407H21C19.6215 45.9407 18.5 44.8192 18.5 43.4407V23.9407C18.5 22.5622 19.6215 21.4407 21 21.4407H22.5625V22.6907C22.5625 23.381 23.1221 23.9407 23.8125 23.9407C24.5029 23.9407 25.0625 23.381 25.0625 22.6907V21.4407H30.6875V22.6907C30.6875 23.381 31.2471 23.9407 31.9375 23.9407C32.6279 23.9407 33.1875 23.381 33.1875 22.6907V21.4407H38.875V22.6907C38.875 23.381 39.4346 23.9407 40.125 23.9407C40.8154 23.9407 41.375 23.381 41.375 22.6907V21.4407H43C44.3785 21.4407 45.5 22.5622 45.5 23.9407V37.1907C45.5 37.881 46.0596 38.4407 46.75 38.4407Z" fill="#4B1971"/>
<path d="M37.5461 29.5257L31.3848 38.1319C31.2165 38.327 31.0057 38.3692 30.8927 38.3767C30.7763 38.3848 30.5506 38.3695 30.357 38.1852L26.3682 34.3552C25.87 33.877 25.0788 33.8931 24.6009 34.391C24.1227 34.889 24.1387 35.6803 24.6367 36.1584L28.6294 39.9922C29.2274 40.5615 30.0257 40.8781 30.8469 40.8781C30.9174 40.8781 30.9882 40.8758 31.0589 40.8711C31.9535 40.8115 32.7889 40.3764 33.3505 39.6775C33.365 39.6594 33.379 39.641 33.3926 39.6221L39.5789 30.9808C39.9808 30.4195 39.8515 29.6387 39.2902 29.2368C38.7287 28.835 37.9479 28.9643 37.5461 29.5257Z" fill="#4B1971"/>
</svg>
