<svg width="61" height="61" viewBox="0 0 61 61" fill="none" xmlns="http://www.w3.org/2000/svg">
<g clip-path="url(#clip0_39_1515)">
<path d="M1.36608 35.9739L25.9266 60.5344C13.3843 58.4143 3.48614 48.5161 1.36608 35.9739Z" fill="#4B1971"/>
<path d="M0.988251 29.306L32.5944 60.9122C34.4741 60.8117 36.3078 60.5384 38.08 60.1078L1.79262 23.8204C1.36201 25.5927 1.08869 27.4263 0.988251 29.306Z" fill="#4B1971"/>
<path d="M3.36568 19.1036L42.7968 58.5347C44.233 57.9183 45.6114 57.1932 46.9216 56.3696L5.53083 14.9788C4.70722 16.289 3.98205 17.6674 3.36568 19.1036Z" fill="#4B1971"/>
<path d="M8.20232 11.3603C13.708 4.96298 21.8642 0.912109 30.9666 0.912109C47.5471 0.912109 60.9883 14.3532 60.9883 30.9338C60.9883 40.0361 56.9374 48.1924 50.5401 53.698L8.20232 11.3603Z" fill="#4B1971"/>
</g>
<defs>
<clipPath id="clip0_39_1515">
<rect width="60" height="60" fill="white" transform="translate(0.988251 0.912109)"/>
</clipPath>
</defs>
</svg>
