<svg width="38" height="38" viewBox="0 0 38 38" fill="none" xmlns="http://www.w3.org/2000/svg">
<path d="M17.4583 7.10738C17.4583 5.4045 18.8388 4.02405 20.5417 4.02405C22.2445 4.02405 23.625 5.4045 23.625 7.10738V8.64905C23.625 9.50049 24.3152 10.1907 25.1667 10.1907H29.7917C30.6431 10.1907 31.3333 10.8809 31.3333 11.7324V16.3574C31.3333 17.2088 30.6431 17.899 29.7917 17.899H28.25C26.5471 17.899 25.1667 19.2795 25.1667 20.9824C25.1667 22.6853 26.5471 24.0657 28.25 24.0657H29.7917C30.6431 24.0657 31.3333 24.7559 31.3333 25.6074V30.2324C31.3333 31.0838 30.6431 31.774 29.7917 31.774H25.1667C24.3152 31.774 23.625 31.0838 23.625 30.2324V28.6907C23.625 26.9878 22.2445 25.6074 20.5417 25.6074C18.8388 25.6074 17.4583 26.9878 17.4583 28.6907V30.2324C17.4583 31.0838 16.7681 31.774 15.9167 31.774H11.2917C10.4402 31.774 9.75 31.0838 9.75 30.2324V25.6074C9.75 24.7559 9.05977 24.0657 8.20833 24.0657H6.66667C4.96379 24.0657 3.58333 22.6853 3.58333 20.9824C3.58333 19.2795 4.96379 17.899 6.66667 17.899H8.20833C9.05977 17.899 9.75 17.2088 9.75 16.3574V11.7324C9.75 10.8809 10.4402 10.1907 11.2917 10.1907H15.9167C16.7681 10.1907 17.4583 9.50049 17.4583 8.64905V7.10738Z" stroke="#4B1971" stroke-width="2.5" stroke-linecap="round" stroke-linejoin="round"/>
</svg>
