<svg width="62" height="62" viewBox="0 0 62 62" fill="none" xmlns="http://www.w3.org/2000/svg">
<path d="M13.1765 38.9611C13.1765 42.488 10.2954 45.3691 6.76855 45.3691C3.24167 45.3691 0.360565 42.488 0.360565 38.9611C0.360565 35.4342 3.24167 32.5531 6.76855 32.5531H13.1765V38.9611Z" fill="#4B1971"/>
<path d="M16.4051 38.9611C16.4051 35.4342 19.2862 32.5531 22.8131 32.5531C26.3399 32.5531 29.2211 35.4342 29.2211 38.9611V55.0059C29.2211 58.5327 26.3399 61.4139 22.8131 61.4139C19.2862 61.4139 16.4051 58.5327 16.4051 55.0059V38.9611Z" fill="#4B1971"/>
<path d="M22.8131 13.229C19.2862 13.229 16.4051 10.3479 16.4051 6.82107C16.4051 3.29419 19.2862 0.413086 22.8131 0.413086C26.3399 0.413086 29.2211 3.29419 29.2211 6.82107V13.229H22.8131Z" fill="#4B1971"/>
<path d="M22.8133 16.4598C26.3402 16.4598 29.2213 19.3409 29.2213 22.8678C29.2213 26.3947 26.3402 29.2758 22.8133 29.2758H6.76855C3.24167 29.2758 0.360565 26.3947 0.360565 22.8678C0.360565 19.3409 3.24167 16.4598 6.76855 16.4598H22.8133Z" fill="#4B1971"/>
<path d="M48.5444 22.8678C48.5444 19.3409 51.4255 16.4598 54.9524 16.4598C58.4792 16.4598 61.3603 19.3409 61.3603 22.8678C61.3603 26.3947 58.4792 29.2758 54.9524 29.2758H48.5444V22.8678Z" fill="#4B1971"/>
<path d="M45.3159 22.8659C45.3159 26.3927 42.4348 29.2738 38.9079 29.2738C35.381 29.2738 32.4999 26.3927 32.4999 22.8659V6.82107C32.4999 3.29419 35.381 0.413086 38.9079 0.413086C42.4348 0.413086 45.3159 3.29419 45.3159 6.82107V22.8659Z" fill="#4B1971"/>
<path d="M38.9079 48.5952C42.4348 48.5952 45.3159 51.4763 45.3159 55.0032C45.3159 58.5301 42.4348 61.4112 38.9079 61.4112C35.381 61.4112 32.4999 58.5301 32.4999 55.0032V48.5952H38.9079Z" fill="#4B1971"/>
<path d="M38.9079 45.3691C35.381 45.3691 32.4999 42.488 32.4999 38.9611C32.4999 35.4342 35.381 32.5531 38.9079 32.5531H54.9527C58.4796 32.5531 61.3607 35.4342 61.3607 38.9611C61.3607 42.488 58.4796 45.3691 54.9527 45.3691H38.9079Z" fill="#4B1971"/>
</svg>
