<svg width="19" height="18" viewBox="0 0 19 18" fill="none" xmlns="http://www.w3.org/2000/svg">
<g opacity="0.6">
<path d="M5.38699 10.7423L4.26949 15.5812C4.20049 15.8805 4.32049 16.1918 4.57399 16.3665C4.70224 16.455 4.85074 16.5 4.99999 16.5C5.14474 16.5 5.29024 16.458 5.41624 16.374L9.49999 13.6515L13.5837 16.374C13.8447 16.548 14.1875 16.5413 14.4425 16.356C14.696 16.1708 14.8077 15.846 14.7215 15.5445L13.3497 10.7445L16.7517 7.683C16.9745 7.482 17.0562 7.1685 16.9602 6.885C16.8635 6.6015 16.6077 6.402 16.3092 6.378L12.0335 6.0375L10.1832 1.94175C10.0625 1.6725 9.79474 1.5 9.49999 1.5C9.20524 1.5 8.93749 1.6725 8.81674 1.94175L6.96649 6.0375L2.69074 6.37725C2.39674 6.4005 2.14399 6.59325 2.04499 6.87C1.94449 7.14675 2.01649 7.4565 2.22649 7.662L5.38699 10.7423ZM7.52674 7.49775C7.79899 7.476 8.03899 7.308 8.15074 7.05825L9.49999 4.0725L10.8492 7.05825C10.961 7.308 11.201 7.476 11.4732 7.49775L14.4522 7.734L11.999 9.942C11.786 10.134 11.7012 10.4295 11.7792 10.7055L12.719 13.9943L9.91699 12.126C9.66499 11.9572 9.33724 11.9572 9.08524 12.126L6.15724 14.0782L6.94474 10.6688C7.00324 10.4138 6.92524 10.146 6.73774 9.96375L4.45924 7.74225L7.52674 7.49775Z" fill="#9397AD"/>
</g>
</svg>
