<svg width="19" height="18" viewBox="0 0 19 18" fill="none" xmlns="http://www.w3.org/2000/svg">
<g opacity="0.6">
<path d="M5.387 10.7423L4.26951 15.5812C4.20051 15.8805 4.3205 16.1918 4.57401 16.3665C4.70226 16.455 4.85075 16.5 5 16.5C5.14475 16.5 5.29025 16.458 5.41625 16.374L9.50001 13.6515L13.5838 16.374C13.8448 16.548 14.1875 16.5413 14.4425 16.356C14.696 16.1708 14.8078 15.846 14.7215 15.5445L13.3498 10.7445L16.7518 7.683C16.9745 7.482 17.0563 7.1685 16.9603 6.885C16.8635 6.6015 16.6078 6.402 16.3093 6.378L12.0335 6.0375L10.1833 1.94175C10.0625 1.6725 9.79476 1.5 9.50001 1.5C9.20526 1.5 8.93751 1.6725 8.81676 1.94175L6.9665 6.0375L2.69075 6.37725C2.39675 6.4005 2.144 6.59325 2.045 6.87C1.9445 7.14675 2.0165 7.4565 2.2265 7.662L5.387 10.7423ZM7.52676 7.49775C7.79901 7.476 8.03901 7.308 8.15076 7.05825L9.50001 4.0725L10.8493 7.05825C10.961 7.308 11.201 7.476 11.4733 7.49775L14.4523 7.734L11.999 9.942C11.786 10.134 11.7013 10.4295 11.7793 10.7055L12.719 13.9943L9.91701 12.126C9.66501 11.9572 9.33726 11.9572 9.08525 12.126L6.15726 14.0782L6.94476 10.6688C7.00326 10.4138 6.92526 10.146 6.73776 9.96375L4.45925 7.74225L7.52676 7.49775Z" fill="white"/>
</g>
</svg>
